# xmcd
#
# Track frame offsets:
#	150
#	20792
#	40057
#	55415
#	69457
#	88722
#	103720
#	120400
#	137877
#	154385
#	173642
#	188390
#	201930
#	218295
#	233425
#	252057
#	268910
#	286000
#
# Disc length: 4086 seconds
#
# Revision: 0
# Processed by: cddbd v1.5.2PL0 Copyright (c) Steve Scherf et al.
# Submitted via: audiograbber 1.83.01
#
DISCID=f40ff412
DTITLE=Various Artist - A Tribute To The Motown Years Vol. 1
DYEAR=2008
DGENRE=Soul
TTITLE0=Motorcity All Stars - Heat Wave
TTITLE1=The Miracles - Love Machine
TTITLE2=The Supremes - Baby Love
TTITLE3=Edwin Star - Breakin Down The Walls Of Heartache
TTITLE4=Mary Johnson - I was Made To Love Her
TTITLE5=Syreeta - Spinning And Spinning
TTITLE6=Frankie Gaye - I Heard It Through The Grapevine
TTITLE7=Johnny Bristol - Hang On In There Baby
TTITLE8=Betty Lavette - Betty Lavette
TTITLE9=The Supremes - Stop In The Name Of Love
TTITLE10=Martha Reeves and The Vandellas - Number One
TTITLE11=Kim Weston - Dancing In The Street
TTITLE12=Jimmy Ruffin - Wake Me Up When Its Over
TTITLE13=Mary Wells - My Guy
TTITLE14=The Originals - Please Mister Postman
TTITLE15=Contours - The Tracks Of My Tears
TTITLE16=Monitors - Tears Of A Clown
TTITLE17=Sammy Ward and Sherri Taylor - Reunited
EXTD=
EXTT0=
EXTT1=
EXTT2=
EXTT3=
EXTT4=
EXTT5=
EXTT6=
EXTT7=
EXTT8=
EXTT9=
EXTT10=
EXTT11=
EXTT12=
EXTT13=
EXTT14=
EXTT15=
EXTT16=
EXTT17=
PLAYORDER=
